<svg xmlns="http://www.w3.org/2000/svg" width="720" height="520" viewBox="0 0 720 520">
  <defs>
    <g id="daisy">
      <ellipse cx="0" cy="-78" rx="17" ry="76" fill="#fff"/>
      <ellipse cx="0" cy="-78" rx="17" ry="76" fill="#fff" transform="rotate(30)"/>
      <ellipse cx="0" cy="-78" rx="17" ry="76" fill="#fff" transform="rotate(60)"/>
      <ellipse cx="0" cy="-78" rx="17" ry="76" fill="#fff" transform="rotate(90)"/>
      <ellipse cx="0" cy="-78" rx="17" ry="76" fill="#fff" transform="rotate(120)"/>
      <ellipse cx="0" cy="-78" rx="17" ry="76" fill="#fff" transform="rotate(150)"/>
      <ellipse cx="0" cy="-78" rx="17" ry="76" fill="#fff" transform="rotate(180)"/>
      <ellipse cx="0" cy="-78" rx="17" ry="76" fill="#fff" transform="rotate(210)"/>
      <ellipse cx="0" cy="-78" rx="17" ry="76" fill="#fff" transform="rotate(240)"/>
      <ellipse cx="0" cy="-78" rx="17" ry="76" fill="#fff" transform="rotate(270)"/>
      <ellipse cx="0" cy="-78" rx="17" ry="76" fill="#fff" transform="rotate(300)"/>
      <ellipse cx="0" cy="-78" rx="17" ry="76" fill="#fff" transform="rotate(330)"/>
      <circle r="35" fill="#ffd23f"/>
      <circle r="35" fill="none" stroke="#e6b83a" stroke-width="3" stroke-dasharray="2 3"/>
    </g>
  </defs>

  <rect width="720" height="520" fill="#b9deda"/>
  <use href="#daisy" transform="translate(0 92) rotate(-8) scale(0.56)"/>
  <use href="#daisy" transform="translate(260 92) rotate(6) scale(0.52)"/>
  <use href="#daisy" transform="translate(520 92) rotate(-4) scale(0.58)"/>

  <use href="#daisy" transform="translate(130 282) rotate(10) scale(0.60)"/>
  <use href="#daisy" transform="translate(390 282) rotate(-7) scale(0.52)"/>
  <use href="#daisy" transform="translate(650 282) rotate(8) scale(0.58)"/>

  <use href="#daisy" transform="translate(0 470) rotate(5) scale(0.56)"/>
  <use href="#daisy" transform="translate(260 470) rotate(-9) scale(0.52)"/>
  <use href="#daisy" transform="translate(520 470) rotate(4) scale(0.58)"/>
  <use href="#daisy" transform="translate(720 470) rotate(5) scale(0.56)"/>
</svg>
